<svg fill="#5D5E61" xmlns="http://www.w3.org/2000/svg" xmlns:xlink="http://www.w3.org/1999/xlink" xml:space="preserve" version="1.1" style="shape-rendering:geometricPrecision;text-rendering:geometricPrecision;image-rendering:optimizeQuality;" viewBox="0 0 6827 6827" x="0px" y="0px" fill-rule="evenodd" clip-rule="evenodd"><defs><style type="text/css">
   
    .fil1 {fill:none}
    .fil0 {fill:#5D5E61;fill-rule:nonzero}
   
  </style></defs><g><g><path class="fil0" d="M1785 1053l3358 0c102,0 195,42 262,109 67,67 109,160 109,262l0 2754c0,44 -36,80 -80,80 -10,0 -19,-2 -28,-5 -39,-11 -79,-20 -121,-26 -42,-6 -85,-9 -130,-9 -248,0 -472,100 -635,263 -162,162 -263,387 -263,635 0,108 19,212 54,307 36,99 89,190 156,270l0 0c28,34 24,84 -10,113 -15,13 -33,19 -51,19l0 0 -2622 0c-102,0 -195,-42 -262,-109 -67,-67 -109,-160 -109,-262l0 -4028c0,-102 42,-195 109,-262 67,-67 160,-109 262,-109zm3358 160l-3358 0c-58,0 -111,24 -149,62 -38,38 -62,91 -62,149l0 4028c0,58 24,111 62,149 38,38 91,62 149,62l2467 0c-36,-59 -66,-121 -90,-187 -41,-113 -64,-235 -64,-361 0,-292 118,-556 310,-748 191,-191 456,-310 748,-310 51,0 102,4 152,11 16,2 31,5 46,8l0 -2653c0,-58 -24,-111 -62,-149 -38,-38 -91,-62 -149,-62z"></path><path class="fil0" d="M5156 4058c292,0 556,118 748,310 191,191 310,456 310,748 0,292 -118,556 -310,748 -191,191 -456,310 -748,310 -292,0 -556,-118 -748,-310 -191,-191 -310,-456 -310,-748 0,-292 118,-556 310,-748 191,-191 456,-310 748,-310zm635 423c-162,-162 -387,-263 -635,-263 -248,0 -472,100 -635,263 -162,162 -263,387 -263,635 0,248 100,472 263,635 162,162 387,263 635,263 248,0 472,-100 635,-263 162,-162 263,-387 263,-635 0,-248 -100,-472 -263,-635z"></path><path class="fil0" d="M4456 5036c-44,0 -80,36 -80,80 0,44 36,80 80,80l1399 0c44,0 80,-36 80,-80 0,-44 -36,-80 -80,-80l-1399 0z"></path><path class="fil0" d="M5236 4416c0,-44 -36,-80 -80,-80 -44,0 -80,36 -80,80l0 1399c0,44 36,80 80,80 44,0 80,-36 80,-80l0 -1399z"></path><path class="fil0" d="M2549 2278c-44,0 -80,36 -80,80 0,44 36,80 80,80l1830 0c44,0 80,-36 80,-80 0,-44 -36,-80 -80,-80l-1830 0z"></path><path class="fil0" d="M2549 2999c-44,0 -80,36 -80,80 0,44 36,80 80,80l1830 0c44,0 80,-36 80,-80 0,-44 -36,-80 -80,-80l-1830 0z"></path><path class="fil0" d="M2549 3719c-44,0 -80,36 -80,80 0,44 36,80 80,80l1830 0c44,0 80,-36 80,-80 0,-44 -36,-80 -80,-80l-1830 0z"></path><path class="fil0" d="M2549 4439c-44,0 -80,36 -80,80 0,44 36,80 80,80l1830 0c44,0 80,-36 80,-80 0,-44 -36,-80 -80,-80l-1830 0z"></path></g></g><rect class="fil1" width="6827" height="6827"></rect></svg>