<svg fill="#5D5E61" xmlns="http://www.w3.org/2000/svg" xmlns:xlink="http://www.w3.org/1999/xlink" version="1.1" x="0px" y="0px" viewBox="0 0 100 100" enable-background="new 0 0 100 100" xml:space="preserve"><path d="M50,31.943c-9.956,0-18.057,8.102-18.057,18.059S40.044,68.061,50,68.061s18.057-8.102,18.057-18.059  S59.956,31.943,50,31.943z M50,63.141c-7.243,0-13.136-5.895-13.136-13.139S42.757,36.864,50,36.864s13.137,5.894,13.137,13.138  S57.243,63.141,50,63.141z"></path><path d="M92.05,62.957c-0.498-1.859-1.687-3.41-3.345-4.367l-5.135-2.966c-0.379-0.218-0.744-0.985-0.676-1.403  c0.002-0.017,0.291-1.779,0.291-4.219c0-2.391-0.279-4.136-0.291-4.208c-0.072-0.431,0.293-1.199,0.672-1.417l5.138-2.967  c1.657-0.959,2.846-2.509,3.343-4.365c0.496-1.859,0.243-3.794-0.713-5.451l-4.727-8.186c-0.959-1.659-2.51-2.847-4.365-3.345  c-1.84-0.494-3.814-0.232-5.452,0.713l-5.14,2.967c-0.139,0.08-0.375,0.129-0.629,0.129c-0.432,0-0.779-0.127-0.928-0.247  c-0.014-0.011-1.412-1.157-3.502-2.364c-1.863-1.079-3.473-1.725-3.787-1.847c-0.408-0.156-0.893-0.86-0.893-1.298v-5.93  C61.913,8.224,58.689,5,54.727,5h-9.453c-3.963,0-7.188,3.224-7.188,7.187v5.931c0,0.438-0.483,1.142-0.902,1.302  c-0.303,0.118-1.91,0.764-3.775,1.842c-2.037,1.177-3.436,2.312-3.494,2.358c-0.155,0.126-0.504,0.254-0.934,0.254  c-0.255,0-0.492-0.049-0.632-0.13l-5.14-2.968c-1.636-0.944-3.606-1.204-5.452-0.712c-1.856,0.498-3.407,1.685-4.365,3.344  l-4.727,8.187c-0.956,1.658-1.209,3.594-0.712,5.45c0.497,1.858,1.685,3.408,3.343,4.366l5.138,2.967  c0.378,0.218,0.743,0.985,0.673,1.415c-0.011,0.073-0.29,1.813-0.29,4.209c0,2.395,0.279,4.134,0.29,4.206  c0.07,0.431-0.296,1.198-0.673,1.416l-5.138,2.966c-1.658,0.957-2.845,2.508-3.343,4.367c-0.497,1.857-0.244,3.793,0.712,5.452  l4.727,8.187c1.28,2.215,3.67,3.592,6.236,3.592c1.253,0,2.492-0.334,3.582-0.961l5.139-2.968c0.14-0.079,0.375-0.129,0.629-0.129  c0.43,0,0.777,0.128,0.933,0.253c0.058,0.049,1.455,1.182,3.496,2.36c2.064,1.194,3.783,1.845,3.788,1.847  c0.408,0.156,0.892,0.86,0.892,1.299v5.926c0,3.963,3.225,7.188,7.188,7.188h9.454c3.963,0,7.187-3.225,7.187-7.188v-5.926  c0-0.438,0.483-1.143,0.88-1.295c0.018-0.006,1.74-0.658,3.803-1.85c2.076-1.2,3.487-2.354,3.494-2.36  c0.155-0.126,0.506-0.253,0.936-0.253c0.256,0,0.49,0.049,0.631,0.129l5.134,2.963c1.089,0.631,2.324,0.963,3.575,0.963  c0.63,0,1.262-0.082,1.878-0.248c1.856-0.498,3.407-1.686,4.364-3.345l4.728-8.186C92.293,66.75,92.546,64.814,92.05,62.957z   M87.073,65.947l-4.728,8.186c-0.3,0.52-0.789,0.895-1.379,1.053c-0.58,0.156-1.201,0.078-1.719-0.223L74.116,72  c-0.886-0.514-1.954-0.784-3.091-0.784c-1.512,0-2.982,0.491-4.043,1.353c-0.012,0.011-1.196,0.961-2.849,1.914  c-1.649,0.953-3.077,1.51-3.091,1.515c-2.311,0.885-4.051,3.417-4.051,5.892v5.926c0,1.25-1.018,2.268-2.268,2.268h-9.453  c-1.25,0-2.267-1.018-2.267-2.268v-5.926c0-2.474-1.741-5.007-4.056-5.895c-0.013-0.006-1.437-0.559-3.084-1.512  c-1.629-0.94-2.778-1.857-2.786-1.857c0,0,0,0,0.001,0l-0.068-0.061c-1.055-0.856-2.527-1.349-4.039-1.349  c-1.136,0-2.204,0.271-3.088,0.783L22.418,74l-0.304,0.184c-0.314,0.176-0.748,0.424-1.363,0.778  c-1.048,0.604-2.498,0.211-3.098-0.828l-4.727-8.186c-0.301-0.521-0.379-1.134-0.222-1.72c0.157-0.59,0.531-1.08,1.051-1.381  l0.415-0.24c0.2-0.113,0.372-0.213,0.521-0.299l4.201-2.426c2.144-1.236,3.463-4.013,3.071-6.451  c-0.039-0.257-0.228-1.625-0.228-3.432c0-1.865,0.203-3.277,0.227-3.427c0.394-2.444-0.926-5.221-3.07-6.458  c-1.752-1.012-2.771-1.601-3.397-1.894l0.03-0.039l-1.771-1.034c-0.519-0.299-0.892-0.788-1.05-1.378  c-0.157-0.587-0.078-1.198,0.222-1.719l4.727-8.187c0.3-0.52,0.789-0.894,1.378-1.051c0.585-0.155,1.204-0.076,1.718,0.22  l5.14,2.969c0.886,0.512,1.955,0.782,3.09,0.782c1.512,0,2.983-0.491,4.039-1.35c0.012-0.01,1.196-0.959,2.854-1.917  c1.643-0.95,3.067-1.504,3.085-1.512c2.31-0.886,4.051-3.418,4.051-5.891v-5.931c0-1.25,1.017-2.268,2.267-2.268h9.454  c1.25,0,2.267,1.018,2.267,2.268v5.93c0,2.472,1.741,5.005,4.053,5.892c0.015,0.007,1.448,0.565,3.086,1.512  c1.597,0.922,2.732,1.82,2.853,1.916c1.056,0.857,2.527,1.349,4.039,1.349c1.137,0,2.203-0.27,3.09-0.781l5.139-2.966  c0.516-0.298,1.135-0.375,1.719-0.221c0.588,0.157,1.077,0.53,1.377,1.05l4.728,8.186c0.301,0.521,0.379,1.133,0.222,1.719  c-0.158,0.591-0.531,1.08-1.052,1.379l-5.138,2.967c-2.146,1.239-3.467,4.014-3.074,6.455c0.038,0.258,0.229,1.635,0.229,3.431  c0,1.864-0.205,3.274-0.228,3.425c-0.394,2.444,0.928,5.221,3.071,6.458l5.136,2.966c0.521,0.299,0.894,0.789,1.052,1.379  C87.452,64.816,87.374,65.426,87.073,65.947z"></path></svg>