<svg fill="#5D5E61" xmlns="http://www.w3.org/2000/svg" xmlns:xlink="http://www.w3.org/1999/xlink" version="1.1" x="0px" y="0px" viewBox="0 0 100 100" enable-background="new 0 0 100 100" xml:space="preserve"><path d="M33.456,5H16.914C10.345,5,5,10.345,5,16.914v16.542c0,6.569,5.345,11.913,11.914,11.913h16.542  c6.569,0,11.914-5.344,11.914-11.913V16.914C45.37,10.345,40.025,5,33.456,5z M40.45,33.456c0,3.856-3.138,6.994-6.994,6.994H16.914  c-3.857,0-6.994-3.138-6.994-6.994V16.914c0-3.857,3.137-6.995,6.994-6.995h16.542c3.856,0,6.994,3.138,6.994,6.995V33.456z"></path><path d="M83.086,5H66.544C59.975,5,54.63,10.345,54.63,16.914v16.542c0,6.569,5.345,11.913,11.914,11.913h16.542  C89.654,45.369,95,40.025,95,33.456V16.914C95,10.345,89.654,5,83.086,5z M90.08,33.456c0,3.856-3.137,6.994-6.994,6.994H66.544  c-3.856,0-6.994-3.138-6.994-6.994V16.914c0-3.857,3.138-6.995,6.994-6.995h16.542c3.857,0,6.994,3.138,6.994,6.995V33.456z"></path><path d="M33.456,54.63H16.914C10.345,54.63,5,59.975,5,66.544v16.542C5,89.654,10.345,95,16.914,95h16.542  c6.569,0,11.914-5.346,11.914-11.914V66.544C45.37,59.975,40.025,54.63,33.456,54.63z M40.45,83.086  c0,3.857-3.138,6.994-6.994,6.994H16.914c-3.857,0-6.994-3.137-6.994-6.994V66.544c0-3.856,3.137-6.994,6.994-6.994h16.542  c3.856,0,6.994,3.138,6.994,6.994V83.086z"></path><path d="M83.086,54.63H66.544c-6.569,0-11.914,5.345-11.914,11.914v16.542C54.63,89.654,59.975,95,66.544,95h16.542  C89.654,95,95,89.654,95,83.086V66.544C95,59.975,89.654,54.63,83.086,54.63z M90.08,83.086c0,3.857-3.137,6.994-6.994,6.994H66.544  c-3.856,0-6.994-3.137-6.994-6.994V66.544c0-3.856,3.138-6.994,6.994-6.994h16.542c3.857,0,6.994,3.138,6.994,6.994V83.086z"></path></svg>