<svg fill="#5D5E61" xmlns="http://www.w3.org/2000/svg" xmlns:xlink="http://www.w3.org/1999/xlink" version="1.1" x="0px" y="0px" viewBox="0 0 100 100" enable-background="new 0 0 100 100" xml:space="preserve"><path d="M93.451,46.254L77.654,30.457c-0.928-0.931-2.551-0.931-3.48,0c-0.464,0.465-0.72,1.082-0.72,1.74  c0,0.657,0.257,1.274,0.721,1.738L87.779,47.54h-47.33c-1.356,0-2.46,1.104-2.46,2.46c0,1.355,1.104,2.46,2.46,2.46h47.33  L74.175,66.063c-0.464,0.465-0.721,1.082-0.721,1.739c0,0.658,0.256,1.275,0.72,1.74c0.467,0.465,1.083,0.722,1.74,0.722  c0.658,0,1.275-0.257,1.74-0.722L93.45,53.745C94.45,52.748,95,51.418,95,50C95,48.584,94.45,47.254,93.451,46.254z"></path><path d="M64.182,68.007c-1.356,0-2.461,1.104-2.461,2.461v12.619c0,3.856-3.138,6.993-6.994,6.993H16.914  c-3.856,0-6.994-3.137-6.994-6.993V16.914c0-3.857,3.138-6.994,6.994-6.994h37.813c3.856,0,6.994,3.137,6.994,6.994v12.619  c0,1.355,1.104,2.46,2.461,2.46c1.354,0,2.459-1.104,2.459-2.46V16.914C66.641,10.345,61.296,5,54.727,5H16.914  C10.344,5,5,10.345,5,16.914v66.173C5,89.656,10.344,95,16.914,95h37.813c6.569,0,11.914-5.344,11.914-11.913V70.468  C66.641,69.111,65.537,68.007,64.182,68.007z"></path></svg>