<svg fill="#A6A8AD" xmlns:dc="http://purl.org/dc/elements/1.1/" xmlns:cc="http://creativecommons.org/ns#" xmlns:rdf="http://www.w3.org/1999/02/22-rdf-syntax-ns#" xmlns:svg="http://www.w3.org/2000/svg" xmlns="http://www.w3.org/2000/svg" xmlns:sodipodi="http://sodipodi.sourceforge.net/DTD/sodipodi-0.dtd" xmlns:inkscape="http://www.inkscape.org/namespaces/inkscape" version="1.1" x="0px" y="0px" viewBox="0 0 100 100"><g transform="translate(0,-952.36218)"><path style="text-indent:0;text-transform:none;direction:ltr;block-progression:tb;baseline-shift:baseline;color:#000000;enable-background:accumulate;" d="m 82.352671,974.25221 c -7.810405,-7.81031 -20.474105,-7.81032 -28.284305,0 l -38.1838,38.18369 c -5.4599,5.4599 -5.4599,14.3392 0,19.799 5.4598,5.4599 14.3391,5.4599 19.799,10e-5 l 38.1838,-38.18376 c 3.1093,-3.1095 3.1094,-8.2043 -1e-4,-11.3138 -3.1094,-3.10947 -8.2043,-3.10942 -11.3136,10e-5 l -32.527,32.52676 a 2.0001999,2.0001999 0 1 0 2.8284,2.8285 l 32.527,-32.52686 c 1.5914,-1.5914 4.0654,-1.5915 5.6569,0 1.5914,1.5914 1.5914,4.0654 0,5.6568 l -38.1838,38.18376 c -3.9418,3.9419 -10.2003,3.9419 -14.1422,0 -3.9418,-3.9418 -3.9418,-10.2003 10e-5,-14.1421 l 38.1838,-38.18376 c 6.2921,-6.29229 16.335,-6.29229 22.6274,-10e-6 6.292205,6.29231 6.292105,16.33511 0,22.62741 l -32.527,32.52686 a 2.0001999,2.0001999 0 1 0 2.8284,2.8285 l 32.527005,-32.527 c 7.8103,-7.81016 7.8102,-20.47396 0,-28.28419 z" fill="#A6A8AD" fill-opacity="1" stroke="none" marker="none" visibility="visible" display="inline" overflow="visible"></path></g></svg>