<svg fill="#5D5E61" xmlns="http://www.w3.org/2000/svg" xmlns:xlink="http://www.w3.org/1999/xlink" version="1.1" x="0px" y="0px" viewBox="0 0 52 52" style="enable-background:new 0 0 52 52;" xml:space="preserve"><style type="text/css">
	.st0{fill:none;stroke:#5D5E61;stroke-linecap:round;stroke-linejoin:round;stroke-miterlimit:10;}
</style><g><g><path d="M26,50.5C12.4902344,50.5,1.5,39.5097656,1.5,26S12.4902344,1.5,26,1.5S50.5,12.4902344,50.5,26S39.5097656,50.5,26,50.5z     M26,2.5C13.0419922,2.5,2.5,13.0419922,2.5,26S13.0419922,49.5,26,49.5S49.5,38.9580078,49.5,26S38.9580078,2.5,26,2.5z"></path></g><g><path d="M26,50.5c-5.6826172,0-10.1337891-10.7617188-10.1337891-24.5S20.3173828,1.5,26,1.5S36.1337891,12.2617188,36.1337891,26    S31.6826172,50.5,26,50.5z M26,2.5c-4.9511719,0-9.1337891,10.7617188-9.1337891,23.5S21.0488281,49.5,26,49.5    s9.1337891-10.7617188,9.1337891-23.5S30.9511719,2.5,26,2.5z"></path></g><g><g><path d="M46.2666016,13.6523438H5.7333984c-0.2763672,0-0.5-0.2236328-0.5-0.5s0.2236328-0.5,0.5-0.5h40.5332031     c0.2763672,0,0.5,0.2236328,0.5,0.5S46.5429688,13.6523438,46.2666016,13.6523438z"></path></g><g><path d="M49.9980469,26.4970703H2.0029297c-0.2763672,0-0.5-0.2236328-0.5-0.5s0.2236328-0.5,0.5-0.5h47.9951172     c0.2763672,0,0.5,0.2236328,0.5,0.5S50.2744141,26.4970703,49.9980469,26.4970703z"></path></g><g><path d="M46.2666016,39.3427734H5.7333984c-0.2763672,0-0.5-0.2236328-0.5-0.5s0.2236328-0.5,0.5-0.5h40.5332031     c0.2763672,0,0.5,0.2236328,0.5,0.5S46.5429688,39.3427734,46.2666016,39.3427734z"></path></g></g></g></svg>