<svg fill="#5D5E61" xmlns="http://www.w3.org/2000/svg" xmlns:xlink="http://www.w3.org/1999/xlink" version="1.1" x="0px" y="0px" viewBox="0 0 100 100" enable-background="new 0 0 100 100" xml:space="preserve"><path d="M27.117,20.343h65.365c1.389,0,2.518-1.129,2.518-2.517c0-1.388-1.129-2.518-2.518-2.518H27.117  c-1.389,0-2.518,1.13-2.518,2.518C24.599,19.214,25.728,20.343,27.117,20.343z"></path><path d="M92.482,79.658H27.117c-1.389,0-2.518,1.129-2.518,2.517s1.129,2.519,2.518,2.519h65.365c1.389,0,2.518-1.131,2.518-2.519  S93.871,79.658,92.482,79.658z"></path><path d="M92.482,47.482H27.117c-1.389,0-2.518,1.13-2.518,2.518c0,1.389,1.129,2.518,2.518,2.518h65.365  C93.871,52.518,95,51.389,95,50C95,48.612,93.871,47.482,92.482,47.482z"></path><path d="M10.399,12.426C7.422,12.426,5,14.848,5,17.825c0,2.977,2.422,5.399,5.399,5.399s5.4-2.423,5.4-5.399  C15.8,14.848,13.377,12.426,10.399,12.426z"></path><path d="M10.399,44.601C7.422,44.601,5,47.023,5,50c0,2.977,2.422,5.398,5.399,5.398s5.4-2.422,5.4-5.398  C15.799,47.024,13.377,44.601,10.399,44.601z"></path><path d="M10.399,76.775C7.422,76.775,5,79.198,5,82.175c0,2.978,2.422,5.399,5.399,5.399s5.4-2.422,5.4-5.399  C15.8,79.198,13.377,76.775,10.399,76.775z"></path></svg>