<svg fill="#5D5E61" xmlns="http://www.w3.org/2000/svg" xmlns:xlink="http://www.w3.org/1999/xlink" version="1.1" x="0px" y="0px" viewBox="0 0 100 100" enable-background="new 0 0 100 100" xml:space="preserve"><path d="M83.086,22.725H71.367v-4.63c0-6.57-5.346-11.913-11.914-11.913H40.547c-6.569,0-11.914,5.344-11.914,11.913v4.63H16.914  C10.345,22.725,5,28.069,5,34.639v47.267c0,6.568,5.345,11.912,11.914,11.912h66.172C89.654,93.818,95,88.475,95,81.904V34.639  C95,28.07,89.654,22.725,83.086,22.725z M33.554,18.095c0-3.856,3.137-6.993,6.993-6.993h18.906c3.855,0,6.992,3.137,6.992,6.993  v4.63H33.554V18.095z M90.08,81.904c0,3.855-3.137,6.992-6.994,6.992H16.914c-3.857,0-6.994-3.137-6.994-6.992V60.496h27.537v0.611  c0,3.963,3.224,7.188,7.187,7.188h10.713c3.963,0,7.188-3.225,7.188-7.188v-0.611H90.08V81.904z M42.376,61.107v-5.672  c0-1.25,1.018-2.268,2.268-2.268h10.713c1.25,0,2.268,1.018,2.268,2.268v5.672c0,1.25-1.018,2.267-2.268,2.267H44.644  C43.394,63.374,42.376,62.357,42.376,61.107z M90.08,55.576H62.544v-0.141c0-3.963-3.224-7.187-7.187-7.187H44.644  c-3.963,0-7.187,3.224-7.187,7.187v0.141H9.92V34.639c0-3.856,3.137-6.994,6.994-6.994h66.172c3.857,0,6.994,3.138,6.994,6.994  V55.576z"></path></svg>