<svg fill="#5D5E61" xmlns="http://www.w3.org/2000/svg" xmlns:xlink="http://www.w3.org/1999/xlink" version="1.1" x="0px" y="0px" viewBox="0 0 52 52" style="enable-background:new 0 0 52 52;" xml:space="preserve"><style type="text/css">
	.st0{fill:none;stroke:#5D5E61;stroke-linecap:round;stroke-linejoin:round;stroke-miterlimit:10;}
</style><g><g><g><path d="M50,46.0766602H2c-0.2763672,0-0.5-0.2236328-0.5-0.5V6.4233398c0-0.2763672,0.2236328-0.5,0.5-0.5h13.5302734     c0.1660156,0,0.3208008,0.0820313,0.4140625,0.2197266l3.8510742,5.6860352H50c0.2763672,0,0.5,0.2236328,0.5,0.5v33.2475586     C50.5,45.8530273,50.2763672,46.0766602,50,46.0766602z M2.5,45.0766602h47V12.8291016H19.5302734     c-0.1660156,0-0.3208008-0.0820313-0.4140625-0.2197266l-3.8510742-5.6860352H2.5V45.0766602z"></path></g></g><g><path d="M11.7973633,12.1386719h-5.5c-0.2763672,0-0.5-0.2236328-0.5-0.5s0.2236328-0.5,0.5-0.5h5.5    c0.2763672,0,0.5,0.2236328,0.5,0.5S12.0737305,12.1386719,11.7973633,12.1386719z"></path></g></g></svg>