<svg fill="#5D5E61" xmlns="http://www.w3.org/2000/svg" xmlns:xlink="http://www.w3.org/1999/xlink" version="1.1" x="0px" y="0px" viewBox="0 0 100 100" enable-background="new 0 0 100 100" xml:space="preserve"><path d="M84.189,35.848c-1.465,0-3.285,0.63-5.726,1.983c-0.122,0.067-0.224,0.112-0.303,0.141  c-0.077-0.193-0.179-0.575-0.179-1.245V22.113c0-2.399-1.951-4.351-4.352-4.351H63.275c-2.615,0-4.603,0.925-5.594,2.607  c-0.893,1.511-0.826,3.35,0.182,5.177c1.33,2.397,1.369,3.254,1.369,3.344c0,3.136-4.314,5.888-9.232,5.888  s-9.232-2.751-9.232-5.888c0-0.09,0.038-0.945,1.366-3.346c1.01-1.825,1.076-3.663,0.184-5.174  c-0.991-1.682-2.977-2.608-5.593-2.608H26.367c-2.399,0-4.351,1.952-4.351,4.351v14.614c0,0.543-0.09,1.006-0.178,1.245  c-0.079-0.028-0.18-0.072-0.301-0.139c-2.442-1.354-4.263-1.984-5.728-1.984C9.85,35.848,5,42.197,5,50  c0,7.803,4.85,14.15,10.81,14.15c1.461,0,3.281-0.629,5.73-1.98c0.12-0.066,0.221-0.111,0.299-0.141  c0.088,0.24,0.177,0.703,0.177,1.246v14.61c0,2.399,1.952,4.353,4.351,4.353h10.358c2.616,0,4.602-0.928,5.593-2.608  c0.892-1.512,0.826-3.351-0.184-5.175c-1.328-2.4-1.366-3.256-1.366-3.346c0-3.137,4.314-5.889,9.232-5.889s9.232,2.752,9.232,5.889  c0,0.09-0.039,0.945-1.369,3.348c-1.01,1.825-1.073,3.662-0.182,5.176c0.992,1.68,2.979,2.605,5.594,2.605h10.356  c2.399,0,4.353-1.952,4.353-4.353v-14.61c0-0.543,0.089-1.006,0.177-1.246c0.079,0.029,0.182,0.074,0.305,0.143  c2.443,1.35,4.263,1.979,5.724,1.979C90.15,64.15,95,57.803,95,50C95,42.197,90.15,35.848,84.189,35.848z M84.189,59.23  c-0.09,0-0.941-0.039-3.342-1.361c-0.965-0.535-1.932-0.807-2.873-0.807c-2.445,0-4.912,1.922-4.912,6.213v14.041h-9.787  c-0.633,0-1.035-0.096-1.248-0.178c0.029-0.078,0.072-0.18,0.141-0.302c1.354-2.44,1.984-4.262,1.984-5.729  c0-5.959-6.35-10.808-14.152-10.808c-7.803,0-14.152,4.849-14.152,10.808c0,1.465,0.63,3.285,1.981,5.728  c0.068,0.123,0.113,0.226,0.141,0.304c-0.212,0.082-0.616,0.178-1.246,0.178h-9.789V63.275c0-4.291-2.466-6.213-4.911-6.213  c-0.942,0-1.908,0.271-2.87,0.804c-2.404,1.325-3.256,1.364-3.346,1.364c-3.138,0-5.89-4.313-5.89-9.23s2.752-9.232,5.89-9.232  c0.09,0,0.945,0.038,3.345,1.369c0.962,0.531,1.925,0.801,2.868,0.801c2.446,0,4.913-1.92,4.913-6.211V22.682h9.789  c0.63,0,1.033,0.097,1.246,0.178c-0.028,0.078-0.073,0.18-0.141,0.302c-1.352,2.445-1.982,4.265-1.982,5.728  c0,5.959,6.349,10.808,14.152,10.808c7.804,0,14.152-4.849,14.152-10.808c0-1.467-0.631-3.288-1.983-5.727  c-0.067-0.123-0.112-0.224-0.142-0.303c0.213-0.082,0.617-0.178,1.248-0.178h9.787v14.044c0,1.674,0.369,3.07,1.094,4.149  c0.878,1.301,2.271,2.047,3.828,2.047c0.939,0,1.93-0.272,2.861-0.788c2.398-1.329,3.254-1.367,3.344-1.367  c3.138,0,5.891,4.314,5.891,9.232S87.327,59.23,84.189,59.23z"></path></svg>