<svg fill="#5D5E61" xmlns="http://www.w3.org/2000/svg" xmlns:xlink="http://www.w3.org/1999/xlink" version="1.1" x="0px" y="0px" viewBox="0 0 100 100" enable-background="new 0 0 100 100" xml:space="preserve"><path d="M93.48,12.719c-0.646-0.618-1.791-1.356-3.569-1.356c-0.784,0-1.624,0.148-2.497,0.439l-76.93,25.643  c-4.427,1.476-5.321,4.057-5.46,5.463c-0.139,1.407,0.232,4.114,4.283,6.429l23.825,13.614v18.205c0,5.134,2.223,6.723,3.545,7.212  c0.479,0.178,0.992,0.269,1.525,0.269c1.938,0,3.912-1.156,5.864-3.434l9.211-10.74l14.76,8.434  c1.794,1.025,3.906,1.207,5.668,0.487c1.789-0.727,3.145-2.298,3.721-4.311l17.237-60.332C95.616,15.397,94.332,13.532,93.48,12.719  z M34.565,58.104L11.75,45.066c-1.467-0.838-1.82-1.516-1.832-1.66c0.042-0.167,0.524-0.762,2.124-1.295l72.033-24.01L34.565,58.104  z M40.332,82c-0.945,1.104-1.591,1.503-1.9,1.646c-0.148-0.314-0.38-1.039-0.38-2.489V65.762l10.876,6.215L40.332,82z   M72.695,77.725c-0.159,0.555-0.459,0.947-0.844,1.104c-0.381,0.154-0.877,0.081-1.375-0.203L39.148,60.723l49.929-40.339  L72.695,77.725z"></path></svg>