<svg fill="#5D5E61" xmlns="http://www.w3.org/2000/svg" xmlns:xlink="http://www.w3.org/1999/xlink" version="1.1" x="0px" y="0px" viewBox="0 0 52 52" style="enable-background:new 0 0 52 52;" xml:space="preserve"><style type="text/css">
	.st0{fill:none;stroke:#5D5E61;stroke-linecap:round;stroke-linejoin:round;stroke-miterlimit:10;}
</style><g><g><g><g><g><g><path d="M26.0048828,38.3837891c-3.3125,0-6.4248047-1.2880859-8.7636719-3.6269531        c-0.1572266-0.1572266-0.1914063-0.3994141-0.0839844-0.5947266c1.7724609-3.21875,5.1621094-5.21875,8.8476563-5.21875        c3.6787109,0,7.0654297,2,8.8378906,5.21875c0.1074219,0.1953125,0.0732422,0.4375-0.0839844,0.5947266        C32.4199219,37.0957031,29.3115234,38.3837891,26.0048828,38.3837891z M18.2226563,34.3154297        c2.1162109,1.9814453,4.8642578,3.0683594,7.7822266,3.0683594c2.9111328,0,5.65625-1.0869141,7.7724609-3.0683594        c-1.6416016-2.7060547-4.5849609-4.3720703-7.7724609-4.3720703        C22.8115234,29.9433594,19.8642578,31.609375,18.2226563,34.3154297z"></path></g><g><path d="M26,29.9482422c-2.6582031,0-4.7207031-3.0214844-4.7207031-5.6201172        c0-2.6025391,2.1181641-4.7207031,4.7207031-4.7207031s4.7207031,2.1181641,4.7207031,4.7207031        C30.7207031,26.9267578,28.6582031,29.9482422,26,29.9482422z M26,20.6074219        c-2.0517578,0-3.7207031,1.6689453-3.7207031,3.7207031c0,2.0800781,1.7167969,4.6201172,3.7207031,4.6201172        s3.7207031-2.5400391,3.7207031-4.6201172C29.7207031,22.2763672,28.0517578,20.6074219,26,20.6074219z"></path></g></g></g></g><g><g><g><g><path d="M26.0048828,38.3837891c-3.3125,0-6.4248047-1.2880859-8.7636719-3.6269531        c-2.3378906-2.3388672-3.6259766-5.4482422-3.6259766-8.7539063c0-6.8320313,5.5576172-12.3896484,12.3896484-12.3896484        c6.8261719,0,12.3798828,5.5576172,12.3798828,12.3896484c0,3.3056641-1.2880859,6.4150391-3.6259766,8.7539063        C32.4199219,37.0957031,29.3115234,38.3837891,26.0048828,38.3837891z M26.0048828,14.6132813        c-6.2802734,0-11.3896484,5.109375-11.3896484,11.3896484c0,3.0390625,1.1835938,5.8964844,3.3330078,8.046875        c2.1503906,2.1503906,5.0117188,3.3339844,8.0566406,3.3339844c3.0390625,0,5.8964844-1.1835938,8.046875-3.3339844        c2.1494141-2.1503906,3.3330078-5.0078125,3.3330078-8.046875        C37.3847656,19.7226563,32.2792969,14.6132813,26.0048828,14.6132813z"></path></g></g></g></g></g><g><path d="M28.5683594,50.4941406h-5.1357422c-0.2070313,0-0.3925781-0.1279297-0.4667969-0.3212891l-1.7011719-4.4404297    c-2.0908203-0.5039063-4.0605469-1.3242188-5.8632813-2.4414063l-4.3476563,1.9521484    c-0.1914063,0.0839844-0.4111328,0.0449219-0.5595703-0.1035156l-3.6289063-3.640625    c-0.1455078-0.1464844-0.1865234-0.3681641-0.1015625-0.5566406l1.9404297-4.3378906    c-1.1181641-1.8144531-1.9384766-3.7880859-2.4404297-5.8740234l-4.4414063-1.6884766    C1.6279297,28.9677734,1.5,28.7822266,1.5,28.5742188v-5.1474609c0-0.2080078,0.1279297-0.3935547,0.3222656-0.4677734    l4.4404297-1.6894531c0.5029297-2.0966797,1.3232422-4.0703125,2.4414063-5.875l-1.9404297-4.3359375    c-0.0849609-0.1884766-0.0439453-0.4101563,0.1015625-0.5566406l3.6289063-3.640625    c0.1474609-0.1494141,0.3681641-0.1884766,0.5595703-0.1035156l4.3476563,1.9521484    c1.8027344-1.1171875,3.7724609-1.9375,5.8632813-2.4414063l1.7011719-4.4414063    c0.0742188-0.1933594,0.2597656-0.3212891,0.4667969-0.3212891h5.1357422c0.2070313,0,0.3925781,0.1279297,0.4667969,0.3212891    l1.7011719,4.4414063c2.0908203,0.5039063,4.0605469,1.3242188,5.8632813,2.4414063l4.3476563-1.9521484    c0.1914063-0.0839844,0.4111328-0.0449219,0.5595703,0.1035156l3.6289063,3.640625    c0.1455078,0.1464844,0.1865234,0.3681641,0.1015625,0.5566406l-1.9404297,4.3359375    c1.1181641,1.8046875,1.9384766,3.7792969,2.4414063,5.875l4.4394531,1.6894531    C50.3720703,23.0332031,50.5,23.21875,50.5,23.4267578v5.1474609c0,0.2080078-0.1279297,0.3935547-0.3222656,0.4677734    l-4.4404297,1.6884766c-0.5019531,2.0859375-1.3222656,4.0595703-2.4404297,5.8740234l1.9404297,4.3378906    c0.0849609,0.1884766,0.0439453,0.4101563-0.1015625,0.5566406l-3.6289063,3.640625    c-0.1484375,0.1474609-0.3691406,0.1875-0.5595703,0.1035156l-4.3476563-1.9521484    c-1.8027344,1.1171875-3.7724609,1.9375-5.8632813,2.4414063l-1.7011719,4.4404297    C28.9609375,50.3662109,28.7753906,50.4941406,28.5683594,50.4941406z M23.7763672,49.4941406h4.4482422l1.6728516-4.3671875    c0.0595703-0.15625,0.1933594-0.2714844,0.3564453-0.3085938c2.1640625-0.4921875,4.1953125-1.3378906,6.0361328-2.5136719    c0.1416016-0.0917969,0.3203125-0.1044922,0.4746094-0.0351563l4.2773438,1.9199219l3.1425781-3.1523438l-1.9091797-4.2675781    c-0.0693359-0.1533203-0.0556641-0.3300781,0.0341797-0.4716797c1.1777344-1.8554688,2.0234375-3.8916016,2.5146484-6.0507813    c0.0371094-0.1640625,0.1533203-0.2978516,0.3095703-0.3574219L49.5,28.2294922v-4.4580078l-4.3662109-1.6611328    c-0.15625-0.0595703-0.2734375-0.1943359-0.3095703-0.3574219c-0.4912109-2.1708984-1.3369141-4.2060547-2.5136719-6.0488281    c-0.0908203-0.1425781-0.1044922-0.3203125-0.0351563-0.4736328l1.9091797-4.2666016l-3.1425781-3.1523438l-4.2773438,1.9199219    c-0.1542969,0.0683594-0.3330078,0.0566406-0.4746094-0.0351563c-1.8408203-1.1757813-3.8720703-2.0214844-6.0361328-2.5136719    c-0.1630859-0.0371094-0.296875-0.1523438-0.3564453-0.3085938l-1.6728516-4.3681641h-4.4482422l-1.6728516,4.3681641    c-0.0595703,0.15625-0.1933594,0.2714844-0.3554688,0.3085938c-2.1650391,0.4921875-4.1962891,1.3378906-6.0380859,2.5146484    c-0.1425781,0.0888672-0.3212891,0.1025391-0.4746094,0.0341797l-4.2763672-1.9199219l-3.1425781,3.1523438l1.9091797,4.2666016    c0.0693359,0.1533203,0.0556641,0.3310547-0.0351563,0.4736328c-1.1767578,1.8427734-2.0224609,3.8779297-2.5136719,6.0488281    c-0.0361328,0.1630859-0.1533203,0.2978516-0.3095703,0.3574219L2.5,23.7714844v4.4580078l4.3671875,1.6601563    c0.15625,0.0595703,0.2724609,0.1933594,0.3095703,0.3574219c0.4912109,2.1591797,1.3369141,4.1953125,2.5146484,6.0507813    c0.0898438,0.1416016,0.1035156,0.3183594,0.0341797,0.4716797l-1.9091797,4.2675781l3.1425781,3.1523438l4.2763672-1.9199219    c0.1533203-0.0693359,0.3320313-0.0566406,0.4746094,0.0341797c1.8417969,1.1767578,3.8730469,2.0224609,6.0380859,2.5146484    c0.1621094,0.0371094,0.2958984,0.1523438,0.3554688,0.3085938L23.7763672,49.4941406z"></path></g></g></svg>