<svg fill="#5D5E61" xmlns="http://www.w3.org/2000/svg" xmlns:xlink="http://www.w3.org/1999/xlink" version="1.1" x="0px" y="0px" viewBox="0 0 100 100" enable-background="new 0 0 100 100" xml:space="preserve"><path d="M50,52.46c13.085,0,23.73-10.646,23.73-23.73S63.085,5,50,5S26.27,15.646,26.27,28.73S36.915,52.46,50,52.46z M50,9.92  c10.372,0,18.811,8.438,18.811,18.811S60.372,47.54,50,47.54s-18.81-8.438-18.81-18.81S39.628,9.92,50,9.92z"></path><path d="M50,59.355c-35.452,0-43.217,17.847-43.217,24.723C6.783,90.915,12.414,95,17.858,95h64.283  c5.444,0,11.075-4.085,11.075-10.922C93.217,77.202,85.452,59.355,50,59.355z M82.143,90.08H17.858  c-2.983,0-6.154-2.104-6.154-6.002c0-5.139,7.036-19.801,38.296-19.801s38.296,14.662,38.296,19.801  C88.296,87.977,85.125,90.08,82.143,90.08z"></path></svg>